<svg xmlns="http://www.w3.org/2000/svg" width="100" height="100" viewBox="0 0 100 100">
  <!-- Body -->
  <ellipse cx="50" cy="55" rx="28" ry="20" fill="#F48FB1"/>
  <!-- Head -->
  <circle cx="50" cy="35" r="16" fill="#F48FB1"/>
  <!-- Ears -->
  <ellipse cx="38" cy="22" rx="6" ry="8" fill="#EC407A" transform="rotate(-15 38 22)"/>
  <ellipse cx="62" cy="22" rx="6" ry="8" fill="#EC407A" transform="rotate(15 62 22)"/>
  <!-- Snout -->
  <ellipse cx="50" cy="40" rx="8" ry="6" fill="#EC407A"/>
  <circle cx="47" cy="40" r="2" fill="#C2185B"/>
  <circle cx="53" cy="40" r="2" fill="#C2185B"/>
  <!-- Eyes -->
  <circle cx="43" cy="32" r="3" fill="white"/>
  <circle cx="43" cy="32" r="1.5" fill="#333"/>
  <circle cx="57" cy="32" r="3" fill="white"/>
  <circle cx="57" cy="32" r="1.5" fill="#333"/>
  <!-- Legs -->
  <rect x="30" y="70" width="7" height="14" rx="3" fill="#EC407A"/>
  <rect x="42" y="72" width="7" height="12" rx="3" fill="#EC407A"/>
  <rect x="52" y="72" width="7" height="12" rx="3" fill="#EC407A"/>
  <rect x="63" y="70" width="7" height="14" rx="3" fill="#EC407A"/>
  <!-- Tail (curly) -->
  <path d="M78 50 Q85 45 82 38 Q79 31 85 28" fill="none" stroke="#EC407A" stroke-width="3" stroke-linecap="round"/>
</svg>
